<?xml version="1.0" encoding="utf-8"?>
<!-- Generator: Adobe Illustrator 16.0.0, SVG Export Plug-In . SVG Version: 6.00 Build 0)  -->
<!DOCTYPE svg PUBLIC "-//W3C//DTD SVG 1.1//EN" "http://www.w3.org/Graphics/SVG/1.1/DTD/svg11.dtd">
<svg version="1.1" id="Ebene_1" xmlns="http://www.w3.org/2000/svg" xmlns:xlink="http://www.w3.org/1999/xlink" x="0px" y="0px"
	 width="512px" height="512px" viewBox="0 0 512 512" enable-background="new 0 0 512 512" xml:space="preserve">
<g>
	<path fill-rule="evenodd" clip-rule="evenodd" fill="#231E1B" d="M256.609,12.175c-138.237,0-250.333,112.073-250.333,250.332
		c0,110.606,71.728,204.438,171.193,237.545c12.509,2.315,17.104-5.433,17.104-12.048c0-5.967-0.231-25.69-0.34-46.604
		c-69.643,15.141-84.338-29.536-84.338-29.536C98.507,382.927,82.1,375.235,82.1,375.235c-22.715-15.538,1.712-15.222,1.712-15.222
		c25.136,1.765,38.374,25.804,38.374,25.804c22.326,38.265,58.562,27.204,72.849,20.808c2.247-16.177,8.732-27.229,15.894-33.479
		c-55.604-6.324-114.057-27.796-114.057-123.714c0-27.33,9.781-49.662,25.796-67.193c-2.599-6.307-11.169-31.767,2.425-66.25
		c0,0,21.023-6.724,68.857,25.665c19.97-5.548,41.385-8.33,62.659-8.427c21.272,0.097,42.704,2.878,62.709,8.427
		c47.786-32.389,68.772-25.665,68.772-25.665c13.627,34.483,5.061,59.943,2.462,66.25c16.047,17.531,25.763,39.863,25.763,67.193
		c0,96.153-58.562,117.317-114.307,123.52c8.979,7.765,16.979,23.002,16.979,46.353c0,33.495-0.292,60.457-0.292,68.699
		c0,6.664,4.51,14.469,17.197,12.016c99.41-33.14,171.048-126.946,171.048-237.513C506.94,124.248,394.859,12.175,256.609,12.175z"
		/>
	<path fill="#231E1B" d="M101.09,371.6c-0.55,1.247-2.51,1.619-4.291,0.762c-1.818-0.818-2.834-2.511-2.247-3.758
		c0.538-1.279,2.498-1.635,4.311-0.785C100.681,368.637,101.718,370.353,101.09,371.6L101.09,371.6z M98.009,369.316"/>
	<path fill="#231E1B" d="M111.231,382.91c-1.194,1.102-3.53,0.592-5.113-1.157c-1.64-1.749-1.943-4.081-0.733-5.206
		c1.23-1.102,3.494-0.583,5.133,1.158C112.158,379.47,112.478,381.785,111.231,382.91L111.231,382.91z M108.842,380.344"/>
	<path fill="#231E1B" d="M121.101,397.322c-1.534,1.069-4.044,0.073-5.595-2.153c-1.534-2.227-1.534-4.898,0.037-5.968
		c1.55-1.068,4.024-0.104,5.595,2.098C122.667,393.565,122.667,396.237,121.101,397.322L121.101,397.322z M121.101,397.322"/>
	<path fill="#231E1B" d="M134.622,411.257c-1.373,1.514-4.295,1.101-6.433-0.964c-2.19-2.016-2.797-4.882-1.425-6.396
		c1.393-1.514,4.332-1.084,6.485,0.964C135.423,406.877,136.083,409.759,134.622,411.257L134.622,411.257z M134.622,411.257"/>
	<path fill="#231E1B" d="M153.276,419.346c-0.607,1.959-3.421,2.85-6.254,2.016c-2.834-0.858-4.684-3.158-4.113-5.133
		c0.587-1.977,3.417-2.907,6.271-2.017C152.009,415.07,153.863,417.346,153.276,419.346L153.276,419.346z M153.276,419.346"/>
	<path fill="#231E1B" d="M173.765,420.843c0.069,2.065-2.336,3.773-5.311,3.813c-2.992,0.065-5.417-1.603-5.449-3.635
		c0-2.089,2.352-3.781,5.344-3.83C171.324,417.135,173.765,418.795,173.765,420.843L173.765,420.843z M173.765,420.843"/>
	<path fill="#231E1B" d="M192.828,417.597c0.356,2.016-1.712,4.08-4.667,4.631c-2.907,0.534-5.595-0.712-5.967-2.704
		c-0.36-2.064,1.745-4.138,4.647-4.672C189.8,414.342,192.452,415.548,192.828,417.597L192.828,417.597z M192.828,417.597"/>
</g>
</svg>
